<svg version="1.1" xmlns="http://www.w3.org/2000/svg" viewBox="0 0 960.4375 361.91015625">
  <defs>
    <style>
      @font-face {
        font-family: "Virgil";
        src: url("https://excalidraw.com/FG_Virgil.ttf");
      }
      @font-face {
        font-family: "Cascadia";
        src: url("https://excalidraw.com/Cascadia.ttf");
      }
    </style>
  </defs>
  <rect x="0" y="0" width="960.4375" height="361.91015625" fill="#ffffff"></rect><g transform="translate(45.8671875 165.4765625)"><path d="M0.6868346884846688 0.5972478434443474 C184.56657170530892 -2.845338307170576, 370.67460004293395 -2.3225448711201606, 866.3883037760854 -0.6423308327794075 M-0.29660272374749186 0.289921984821558 C308.38169406168385 0.7544028915342931, 617.3887040734336 0.12710308207842153, 867.468066098541 -0.23526357635855677 M865.9439983852208 -0.5078532584011555 C868.7126890002094 25.152451474573173, 865.3740453301273 49.6142813235143, 866.340542960912 61.728172432631254 M866.2738243993372 0.5236741546541452 C867.7978192684315 12.772486443301023, 867.3395862099788 25.892783488417628, 867.9829264935106 61.223674500361085 M867.3368286803365 60.6361347720027 C650.7900895666935 58.37409737941661, 434.32798943010124 58.09245050784983, 0.4940503314137459 60.93636017292738 M867.0888395808637 60.354314122349024 C633.963180039495 59.31911780638536, 401.2279036463194 59.48239264292558, -0.06560323014855385 60.29928999915719 M-0.4254853241145611 62.03073216602206 C-1.0959798637028144 47.61866192866146, -0.37896710067943784 32.363341416642655, -0.11978394910693169 1.9089926593005657 M0.4494472201913595 59.89957835711539 C0.5449782810937904 39.34172239420441, 1.2667417131196999 18.409379508075652, 0.6399450358003378 0.7868231181055307" style="stroke: rgb(0, 0, 0); stroke-width: 1; fill: none;"></path></g><g transform="translate(203.0390625 93.73046875)"><path d="M0.5020433925949408 1.0969490503866706 C71.2203562672058 -0.1161380308690585, 145.26877427857488 -0.06995885884681097, 279.34395666003377 1.0803550397570176 M-0.6809253590968165 0.10584125006780876 C65.94989908848939 1.7800659294838246, 133.0726481080288 1.6678154677831556, 279.3911553369448 -0.5000593513155173 M277.8373606223613 -1.624772997573018 C278.53584666151653 11.99652571418701, 281.4622744430984 27.25530420805153, 278.6126766819507 58.26611444167793 M279.4909331044182 -0.02749162819236517 C280.7941115657346 12.531063580942282, 279.6610888103502 25.487629997657496, 278.475196137093 57.94273361656815 M279.41799730168435 59.547134856642195 C180.17536720609846 58.10043846954861, 80.77292171042157 58.61652478739998, 0.32506972813582813 59.3719860945595 M279.32167404577683 58.789645994361315 C217.5559609551679 58.750439156679185, 155.819401645458 58.789658337536174, -0.10824219959831108 58.246834927425866 M-1.3987494688481092 59.57376423291862 C-0.16139675504629847 36.96907922391401, 1.424435781174252 12.413373020451395, 1.4602496046572924 -0.29133358784019947 M-0.41142906341701746 58.517054797150195 C-0.1437898468798085 38.13816972788336, -0.31937508700546463 17.84314791697834, -0.5763378599658608 -0.40483841206878424" style="stroke: rgb(0, 0, 0); stroke-width: 1; fill: none;"></path></g><g transform="translate(308.734375 110.53515625)"><text x="0" y="18" font-family="Virgil" font-size="20px" fill="#000000">Paused</text></g><g transform="translate(393.458984375 183.29296875)"><text x="0" y="18" font-family="Virgil" font-size="20px" fill="#000000">Running countdown</text></g><g><g transform="translate(44.484375 47.5546875)"><path d="M0.45170432701706886 0.21956944093108177 C0.6626883265872796 16.941363736242057, 1.8398615198830763 83.92118148431182, 2.108358184248209 100.83681809529662 M0.710968503970653 -0.6593448326177895 C1.277392794111123 16.60071557966992, 1.6352304581987362 84.88520291952418, 1.7974597066827118 102.09640753118322" style="stroke: rgb(0, 0, 0); stroke-width: 1; fill: none;"></path></g><g transform="translate(44.484375 47.5546875)"><path d="M-8.308593391967278 74.71094350356066 C-4.879560090619629 85.00293749967271, 0.4581740845079638 93.00930369557236, 0.19750894980505107 102.87342228962109 M-8.667728801784378 74.88557622234725 C-6.39533972415636 82.08837136082157, -2.2854184209494397 88.1499014634542, 2.7235321384109556 102.53875948524103" style="stroke: rgb(0, 0, 0); stroke-width: 1; fill: none;"></path></g><g transform="translate(44.484375 47.5546875)"><path d="M12.21203664023271 74.55684785984796 C8.044889878495324 84.9831325705808, 5.785794153383452 93.04654566961239, 0.19750894980505107 102.87342228962109 M11.852901230415611 74.73148057863456 C8.708560674307902 82.10271587180475, 7.401646594838021 88.20492263659976, 2.7235321384109556 102.53875948524103" style="stroke: rgb(0, 0, 0); stroke-width: 1; fill: none;"></path></g></g><g transform="translate(10 11.66796875)"><text x="0" y="18" font-family="Virgil" font-size="20px" fill="#000000">Started</text></g><g transform="translate(164.015625 12.96484375)"><text x="0" y="18" font-family="Virgil" font-size="20px" fill="#000000">Paused</text></g><g transform="translate(438.4375 12.1484375)"><text x="0" y="18" font-family="Virgil" font-size="20px" fill="#000000">Resumed</text></g><g transform="translate(872.4375 10)"><text x="0" y="18" font-family="Virgil" font-size="20px" fill="#000000">Stopped</text></g><g><g transform="translate(201.47265625 45.32421875)"><path d="M-0.8606981791555881 -0.36180601939558976 C-1.3329926289618015 6.275307384878397, -2.637156204134226 32.84537023678422, -3.161018494516611 39.85125118866563 M-0.3292605826444923 1.64241516770795 C-0.5753710535354911 8.126374788302927, -0.8099415597505867 34.31346927942708, -1.4600958195514977 40.72969442965463" style="stroke: rgb(0, 0, 0); stroke-width: 1; fill: none;"></path></g><g transform="translate(201.47265625 45.32421875)"><path d="M-8.08863532595199 21.414285698990664 C-6.977507073417132 25.34863778351627, -2.2971228375085246 31.96465969721907, 0.5354634220711887 40.36984679834917 M-8.0361880758391 21.095495898361644 C-4.392460983387712 29.22715947781212, -2.329968166456373 35.50702651675561, -0.7421169676817954 40.28685303205624" style="stroke: rgb(0, 0, 0); stroke-width: 1; fill: none;"></path></g><g transform="translate(201.47265625 45.32421875)"><path d="M5.802809494949478 22.08413137623658 C3.1251781730480417 25.73616093045406, 4.016962317871238 32.169496491041976, 0.5354634220711887 40.36984679834917 M5.855256745062369 21.76534157560756 C4.078349078470163 29.650700464916543, 0.7266587401022848 35.66949551105061, -0.7421169676817954 40.28685303205624" style="stroke: rgb(0, 0, 0); stroke-width: 1; fill: none;"></path></g></g><g><g transform="translate(479.55078125 48.2109375)"><path d="M-1.15982103087008 -0.9209811296314001 C-0.8953823659569026 5.224375394359231, 0.8135595109313725 30.463964668288824, 0.9198915626853703 36.64499738551676 M-0.888770515518263 0.6784454179275783 C-0.9396949337888509 6.422413578378036, -0.41986682196147745 30.38144959752448, -0.4412312178779394 36.22725681398995" style="stroke: rgb(0, 0, 0); stroke-width: 1; fill: none;"></path></g><g transform="translate(479.55078125 48.2109375)"><path d="M-8.44874254827006 20.1744927418819 C-6.553324272568692 22.26772147182584, -5.693266015828117 27.215452810707465, 1.3588045627008254 35.32004613152574 M-7.534134238316223 17.922847523562506 C-5.490059399954255 25.235869253987257, -2.979150298819569 31.129794051163746, 0.31392415701579013 36.790170809204646" style="stroke: rgb(0, 0, 0); stroke-width: 1; fill: none;"></path></g><g transform="translate(479.55078125 48.2109375)"><path d="M4.328203473016751 20.039531357163483 C3.1001913512260995 22.04225839570413, 0.8370746718600293 27.022979465730625, 1.3588045627008254 35.32004613152574 M5.2428117829705885 17.78788613884409 C2.979791044407463 25.067355991669206, 1.1839299739511855 31.00677269787102, 0.31392415701579013 36.790170809204646" style="stroke: rgb(0, 0, 0); stroke-width: 1; fill: none;"></path></g></g><g><g transform="translate(913.0703125 46.69921875)"><path d="M-0.5553011823445558 0.6566270459443331 C-0.9267611552029849 17.04964698838691, -1.769293325021863 82.52875682798525, -1.8808652210980654 98.77913112528623 M0.283637814586982 -0.5790520717855543 C0.2451403675135224 15.738050036911542, -1.1362325363699348 82.6860858452165, -1.1275571604911239 98.95252468296327" style="stroke: rgb(0, 0, 0); stroke-width: 1; fill: none;"></path></g><g transform="translate(913.0703125 46.69921875)"><path d="M-9.969540690751394 69.38605909123498 C-6.312443980623787 79.83824663538878, -4.077231989289164 88.33725942918952, 0.01988768189214163 99.262511365572 M-10.265727805653235 70.13783566448319 C-8.00765975690663 77.33826989988218, -5.572574726005994 86.28656963640705, -1.6227633814979345 98.85303046320566" style="stroke: rgb(0, 0, 0); stroke-width: 1; fill: none;"></path></g><g transform="translate(913.0703125 46.69921875)"><path d="M10.550316147060201 69.62159622536912 C7.45573379754717 79.90133828118238, 2.940093094534739 88.32286142633907, 0.01988768189214163 99.262511365572 M10.25412903215836 70.37337279861732 C7.005536523840346 77.62309986516382, 3.9339577063853586 86.50819137213168, -1.6227633814979345 98.85303046320566" style="stroke: rgb(0, 0, 0); stroke-width: 1; fill: none;"></path></g></g><g><g transform="translate(177.20703125 310.05859375)"><path d="M-0.6047575078904629 -1.0496633805334568 C-0.7806049190461636 -12.590463944027821, 0.18660453930497178 -58.864366543044646, 0.10052076950669298 -70.22443514242768 M-0.6773195558600127 -0.11228091867640622 C-0.9210158037953079 -11.284281669973085, -0.20031375346705332 -55.59727694145714, 0.14933707119896988 -67.25273615451529" style="stroke: rgb(0, 0, 0); stroke-width: 1; fill: none;"></path></g><g transform="translate(177.20703125 310.05859375)"><path d="M8.049095566030497 -38.01527717299493 C4.230826335369219 -51.35746265789586, 2.097445446397466 -59.64879563587013, -0.09189970118924995 -67.99297610627487 M10.792536113988513 -39.3965866915855 C7.7105582882452115 -46.32554112024937, 3.552427336794328 -54.69241753927744, 1.0091706823743878 -68.22449110591783" style="stroke: rgb(0, 0, 0); stroke-width: 1; fill: none;"></path></g><g transform="translate(177.20703125 310.05859375)"><path d="M-12.467323849461076 -38.45860183222317 C-8.158546237318395 -51.5217020722471, -2.1612611591793645 -59.63734529431561, -0.09189970118924995 -67.99297610627487 M-9.72388330150306 -39.839911350813736 C-6.775488210927348 -46.8388563025671, -4.90457325138769 -55.07545537300757, 1.0091706823743878 -68.22449110591783" style="stroke: rgb(0, 0, 0); stroke-width: 1; fill: none;"></path></g></g><g><g transform="translate(573.92578125 316.99609375)"><path d="M1.072911601513624 0.9159166641533376 C1.6376374217371144 -11.084484077741703, 2.0207886112233004 -60.315291390071316, 2.3586078457534314 -72.52349013611675 M-0.04690252343192691 1.5082914174534383 C0.27398887694502877 -10.503389736519505, 0.6792765728694696 -60.73289476782705, 1.3003243949078023 -73.22394590547309" style="stroke: rgb(0, 0, 0); stroke-width: 1; fill: none;"></path></g><g transform="translate(573.92578125 316.99609375)"><path d="M12.350776730771713 -45.7536787822946 C7.540598333384146 -50.52639687860136, 5.817714293540701 -57.56024351742538, 0.03927632754668586 -73.27520549392328 M11.225381147782855 -45.72386523746988 C7.2001741303493 -55.48173708221865, 4.581197961456105 -67.12059870375663, 1.2721138983778655 -72.9728239020519" style="stroke: rgb(0, 0, 0); stroke-width: 1; fill: none;"></path></g><g transform="translate(573.92578125 316.99609375)"><path d="M-8.163489822605339 -46.28741107739681 C-8.58208142206389 -51.12922687918909, -5.9110609951577775 -58.04875460198479, 0.03927632754668586 -73.27520549392328 M-9.288885405594197 -46.25759753257209 C-5.473818257553649 -55.64087556947858, -0.24772253814898804 -67.07562712871976, 1.2721138983778655 -72.9728239020519" style="stroke: rgb(0, 0, 0); stroke-width: 1; fill: none;"></path></g></g><g transform="translate(148.9921875 321.14453125)"><text x="0" y="18" font-family="Virgil" font-size="20px" fill="#000000">Lap 1</text></g><g transform="translate(542.6484375 326.91015625)"><text x="0" y="18" font-family="Virgil" font-size="20px" fill="#000000">Lap 2</text></g></svg>