<svg version="1.1" xmlns="http://www.w3.org/2000/svg" viewBox="0 0 861.55859375 558.33984375">
  <defs>
    <style>
      @font-face {
        font-family: "Virgil";
        src: url("https://excalidraw.com/FG_Virgil.ttf");
      }
      @font-face {
        font-family: "Cascadia";
        src: url("https://excalidraw.com/Cascadia.ttf");
      }
    </style>
  </defs>
  <rect x="0" y="0" width="861.55859375" height="558.33984375" fill="#ffffff"></rect><g transform="translate(10 10)"><path d="M-0.38962686210870745 0.3217391505837441 C331.38319909636556 1.025393154162477, 663.2271416930234 0.7063867588225112, 842.2027034506202 0.6193586364388466 M-0.1314424030482769 -0.05623754337430001 C195.49771256044116 -2.9219807731379115, 391.40689758374504 -3.538961874173983, 841.5904256589711 -0.24192205742001535 M841.7588439688086 0.6783121123909951 C840.1355885595929 131.52722006097247, 838.9883130640637 264.13433266043285, 841.1647225603461 538.583647967875 M841.6926868207753 0.006619393080472946 C842.2650265904392 207.1394182219585, 841.6221371623004 413.8406122839908, 841.8038378722965 538.118871127814 M841.9004163011908 537.6562122836709 C625.1660915750668 537.9459639355563, 407.9945827058764 538.8850477501773, -0.6132134690880776 537.9124773994088 M841.7740372665227 538.0138298146427 C652.1059382908737 536.7274509683215, 462.7853010156643 536.9822304263674, -0.24610974714159967 538.376239477843 M-0.738200880587101 538.2451369300485 C-2.2479799163535064 369.44815284864234, -2.140113199968619 198.9504866993651, 0.5987293466925622 0.46429419666528704 M0.19652006700634958 538.1599982134998 C-0.7127222715101379 326.6836070479876, -1.2851603446684021 114.87927322500472, 0.21121268346905708 0.24744373485445978" style="stroke: rgb(0, 0, 0); stroke-width: 1; fill: none;"></path></g><g transform="translate(343.87890625 23.41796875)"><text x="0" y="32" font-family="Virgil" font-size="36px" fill="#000000">Countdown</text></g><g transform="translate(311.15234375 111.54296875)"><path d="M-1.506208572536707 1.8059950806200504 C22.24720504690995 0.271879178015879, 40.37888023251872 -0.6193324508980004, 52.909222807735205 0.7308709360659122 M0.009313331916928291 -0.43615503795444965 C16.3069146443544 -1.0645237151828042, 31.996104167851446 0.14955000241134253, 54.979241417720914 0.5991935562342405 M54.074773993343115 -0.9478485845029354 C52.89071820397949 10.488698832449154, 55.32992444654083 18.319018374645385, 53.377866353839636 31.951609943062067 M54.8788495529443 0.5834889244288206 C53.993312864596085 6.820414835409611, 55.21204420834227 13.269481783377707, 54.61554895527661 34.128463907167315 M53.86412676796317 32.228060100227594 C41.36073591567474 33.97134053796959, 28.927745301423418 33.9868900784893, 0.6568088196218014 34.14665696397424 M53.704167710617185 32.84440295211971 C40.02804361871313 33.64301201849863, 25.29001652693114 32.86226228028223, 0.49358813650906086 33.32106242887676 M-0.7696199752390385 35.00230023637414 C-1.753659655629599 27.046174243147835, 1.7269055346856477 18.46746295329067, 0.2591117285192013 -0.4177526496350765 M0.16135423071682453 34.05819593183696 C-0.4353538002204732 25.01392743512115, 0.637148753242509 18.016150561330143, -0.40391398780047894 0.667894883081317" style="stroke: rgb(0, 0, 0); stroke-width: 1; fill: none;"></path></g><g transform="translate(370.23046875 113.55078125)"><path d="M0.23811602778732777 -1.9012226779013872 C9.71000023811248 1.1713030763390635, 24.408448855786265 -0.20473350803822543, 52.810932697728276 0.16897079162299633 M-0.5684266844764352 -0.52448636200279 C17.872915350210317 0.39965990700806286, 35.01425337946494 0.3795955232628694, 54.10241319146007 -0.7761162808164954 M54.63467031903565 1.807688919827342 C52.96987997381322 11.004137671219361, 54.85474853603475 21.796257122684622, 53.66616809554398 32.56498375348747 M54.55674387421459 0.2202709624543786 C54.94212191806568 7.120856205730525, 53.998717273337974 15.382251728852863, 54.810056551359594 33.204634428955615 M54.66268098540604 35.238690285012126 C33.563953431754996 34.22318836331124, 11.586931887015083 33.13128950476403, 1.5271884817630053 32.243328182026744 M55.17030917014927 32.95879602525383 C38.76513732903877 33.33006767458002, 23.330164119214896 33.846126566591664, -0.9549954393878579 32.743270308710635 M-0.8235428910702467 32.089230148121715 C1.5374571541759359 20.86176266507973, -0.658625974276365 10.137558655548489, 1.9455685634166002 -1.4598753172904253 M0.4032201310619712 33.167071492411196 C0.11857401638830195 26.59630988828576, -0.5626445779243658 18.230413739787764, -0.5158934155479074 -0.69106191303581" style="stroke: rgb(0, 0, 0); stroke-width: 1; fill: none;"></path></g><g transform="translate(432.4609375 114.14453125)"><path d="M-1.8839500714093447 -0.15389700047671795 C13.229728330704896 -0.2502552830519198, 28.95270353152519 -0.5429604017080782, 54.12446294538677 1.5875555146485567 M0.4193742210045457 -0.3869778895750642 C18.911090638461246 -0.572659968464468, 37.81625252863523 -1.1585895708490352, 55.29103794042021 -0.670859226025641 M56.22036109678447 0.6872216332703829 C54.87980219755831 12.489035638859788, 55.5252399746007 25.594913441446263, 52.95409874431789 32.26533071883023 M54.83828463498503 0.4743341123685241 C54.821358274423545 13.829382043615624, 53.95834616919703 26.465427251168876, 54.199657254852355 32.62019272800535 M53.02871088497341 33.86797230131924 C40.24843398014964 34.02811892027716, 29.876648209969424 34.3201420425878, 1.8903000187128782 32.00032828934491 M55.07285457197577 32.72788759227842 C32.73839335311604 33.92797902760405, 11.98906950150485 32.86880761918921, -0.5463703041896224 33.487171462737024 M1.2644269298762083 32.48045705445111 C-1.5967411977383017 24.15902730322414, -1.1166591030689597 18.43035763805674, -1.6971212197095156 -1.7383965980261564 M-0.12090400513261557 33.170893243514 C0.48769275591985206 20.655901500764593, 0.9922400836767338 6.565644827290086, -0.3384937113150954 0.5700611090287566" style="stroke: rgb(0, 0, 0); stroke-width: 1; fill: none;"></path></g><g transform="translate(494.4140625 114.92578125)"><path d="M0.20006899908185005 1.5306546799838543 C18.93028785222632 0.03720304024689536, 43.320712546435246 1.9503153229998862, 56.09147136285901 -0.9491246826946735 M0.6597089227288961 0.8094090465456247 C19.460952202829503 0.535036366463828, 37.54607571669476 0.7142290883075475, 54.72843778692186 0.05713125504553318 M54.14439170435071 -0.43132053688168526 C54.09480096985149 8.600125744842808, 53.225773236048695 17.0369789784716, 54.711502838879824 31.918379317969084 M54.60597694478929 0.7498206738382578 C54.88537380550959 7.696582283408498, 54.04563478087046 13.596676793979714, 53.57095176540315 32.37751152552664 M54.4753301627934 31.627131950110197 C32.30140548875133 33.045268155347514, 11.311368296398719 33.41627380968254, 0.5756940133869648 34.65384520217776 M54.643086260184646 33.381709123030305 C33.58865558058678 32.27046740090642, 11.718373689441066 33.54120904242787, -0.046535247936844826 33.02517184056342 M-0.470079492777586 34.120929133147 C1.421906187548011 22.263280900850077, 0.002821996225684409 11.15845172983245, 1.939049769192934 -0.12859128788113594 M-0.8867390099912882 33.549373710528016 C-0.42070684353791876 22.282846016666735, -0.9084523073860328 11.04008579411893, 0.20062274299561977 0.2604271415621042" style="stroke: rgb(0, 0, 0); stroke-width: 1; fill: none;"></path></g><g transform="translate(321.359375 93.0234375)"><text x="0" y="14" font-family="Virgil" font-size="16px" fill="#000000">days</text></g><g transform="translate(376.98828125 93.7890625)"><text x="0" y="14" font-family="Virgil" font-size="16px" fill="#000000">hours</text></g><g transform="translate(493.85546875 94.68359375)"><text x="0" y="14" font-family="Virgil" font-size="16px" fill="#000000">seconds</text></g><g transform="translate(431.984375 93.8203125)"><text x="0" y="14" font-family="Virgil" font-size="16px" fill="#000000">minutes</text></g><g transform="translate(350.609375 182.2109375)"><path d="M-0.8707251213490963 1.2276673577725887 L154.75055829063058 -0.5937217213213444 L154.47832134738564 36.38960340246558 L1.5536529161036015 38.51272573694587" style="stroke: none; stroke-width: 0; fill: rgb(34, 139, 230);"></path><path d="M-0.665378425270319 1.5180337764322758 C45.81649979095456 1.3483860358493256, 90.2570228741228 -0.8770750895245147, 153.4264159463346 1.7311767674982548 M0.4093170929700136 0.14539475552737713 C59.13752698363024 -0.8521360811011254, 118.26352015370941 -0.9697321709410607, 154.22763289697468 -0.7253988850861788 M153.3777795098722 -1.9982477091252804 C152.35555602307767 12.935768498190736, 155.4688860296771 24.959540717469643, 154.44347753748298 38.44405559077859 M154.34578503854573 0.596626890823245 C153.68318975495072 11.992794453898387, 153.23235494421692 23.21453689185146, 153.2192937899381 37.87037785165012 M153.1564682982862 37.22107032313943 C108.84384091600296 39.264438088402166, 61.02965332253807 37.14605551527442, -0.49692318215966225 39.15388647094369 M154.70052881725132 38.566381288692355 C106.59769936892917 39.8096582447111, 57.85908386408846 39.82657219515437, 0.7345161605626345 37.96239901892841 M0.04117133840918541 37.514488849788904 C1.2228162010166852 26.326654327484718, 1.2494533975575177 16.802062145268426, -0.676646564155817 1.593701634556055 M-0.05446670763194561 38.97036839835346 C-0.10728863268057465 22.697149679729772, 1.114556457708677 9.945184546921517, 0.5363004971295595 -0.2387030590325594" style="stroke: rgb(0, 0, 0); stroke-width: 1; fill: none;"></path></g><g transform="translate(263.94140625 255.796875)"><path d="M0.22076519951224327 0.5569456554949284 L154.34326764568686 -0.9204437993466854 L155.2768929861486 36.24117812886834 L0.9172711037099361 39.72625968232751" style="stroke: none; stroke-width: 0; fill: rgb(34, 139, 230);"></path><path d="M-0.4303148053586483 0.27403053268790245 C56.37994706927785 -0.025625852003213323, 113.47607091290848 1.2711357799624239, 154.1721313931048 -1.838492188602686 M-0.8652460742741823 -0.2932512890547514 C32.376514977330956 -0.7374449317713878, 63.8570283940484 0.18510759422577405, 154.5905641745776 0.3303022850304842 M155.16891846433282 -1.9297769404947758 C154.01907734966036 10.990050976873318, 154.2733506450629 24.538506671341022, 154.7568115927279 39.392236318439245 M154.84379569999874 0.06926588900387287 C153.76092805911424 15.169749747555763, 153.26010843564393 28.686052774198473, 154.55868302099407 37.52795015461743 M153.3991980291903 38.02791079506278 C97.48034474557281 39.276374557266465, 41.29974600907444 37.64940724636101, 1.599125001579523 37.49576374515891 M153.39365587942302 38.502799378708005 C99.59872432335032 38.515453925863625, 46.89252071832743 39.518462231890084, -0.7982122469693422 37.62943904288113 M0.47988424077630043 38.62499901279807 C-1.927063855111046 28.463447358029953, -0.9452286090249254 16.489849652236444, -0.9760992787778378 -1.2882858850061893 M-0.8263222742825747 38.730310605838895 C0.14418729685610743 23.92914252945775, 0.6248625769502542 10.969208660229924, -0.9911689925938845 -0.7184414993971586" style="stroke: rgb(0, 0, 0); stroke-width: 1; fill: none;"></path></g><g transform="translate(441.3828125 254.14453125)"><path d="M0.4105991721153259 0.032637178897857666 L153.4487938284874 1.9339261651039124 L154.56944698095322 39.11506134271622 L-1.8661132454872131 38.98033958673477" style="stroke: none; stroke-width: 0; fill: rgb(34, 139, 230);"></path><path d="M-1.257823407649994 -0.3937106728553772 C32.197113238682505 -1.0762192282860634, 65.11744295142125 -0.323119786757743, 153.99011093378067 -0.14808422327041626 M0.6830551326274872 -0.24569293856620789 C45.02558292724425 0.6711654477415141, 89.51578528240789 1.4341878705320414, 153.6518461406231 -0.5279147326946259 M154.5322099328041 -0.48730236291885376 C155.29460706209997 9.321527238725686, 152.91910161471228 17.031174711463976, 153.07561546564102 38.37398570775986 M153.55718824267387 0.2406933605670929 C154.6914409268438 14.603767591551879, 154.79797111635796 29.55012429323979, 154.36994287371635 38.8523009121418 M152.78324180841446 37.20517772436142 C99.40739221755646 39.499818966094175, 48.04771694310473 39.358020946684995, -1.1962408423423767 38.39111179113388 M154.22767755389214 37.56304767727852 C105.88442386932437 38.24198007063591, 55.132204120303484 38.33428716139519, 0.9029504954814911 38.45617988705635 M0.9112878441810608 38.90833896398544 C-0.6168777792737818 30.436115550459363, -0.7049076407239772 20.501428758027032, 0.6921201348304749 1.331028401851654 M0.7208902537822723 38.22625282406807 C0.3004624588252045 30.843625794514082, 0.5532939178706147 23.50717186066322, -0.2149513065814972 0.08548000454902649" style="stroke: rgb(0, 0, 0); stroke-width: 1; fill: none;"></path></g><g transform="translate(399.119140625 188.77734375)"><text x="0" y="18" font-family="Virgil" font-size="20px" fill="#000000">Start</text></g><g transform="translate(495.392578125 260.7109375)"><text x="0" y="18" font-family="Virgil" font-size="20px" fill="#000000">Stop</text></g><g transform="translate(262.951171875 262.36328125)"><text x="0" y="18" font-family="Virgil" font-size="20px" fill="#000000">Pause / Resume</text></g><g><g transform="translate(225.01171875 263.0546875)"><path d="M-0.3342853885143997 -2.68998897857964 C71.84334908512731 -12.114280569429198, 357.86566771455114 -47.7769279876103, 430.28498373217883 -57.65807649679482 M2.819412923008204 -1.3987934710085392 C74.59211985602975 -11.107065004656711, 360.99983251109717 -47.148033910741404, 431.9833296968043 -57.600018060356376" style="stroke: rgb(0, 0, 0); stroke-width: 1; fill: none;"></path></g></g><g><g transform="translate(128.45703125 391.453125)"><path d="M0.8034964621067047 -0.8222776472568512 C101.89415801962218 -2.418547318379084, 505.6689840058486 -8.674616183837255, 606.9653767645359 -10.220074087381363 M-0.4484459142386914 -1.6927262158691883 C100.63157992874582 -3.105572010229031, 506.2521733223895 -7.293117435326178, 607.8425212784111 -8.57724481537938" style="stroke: rgb(0, 0, 0); stroke-width: 1; fill: none;"></path></g></g><g><g transform="translate(186.5546875 346.390625)"><path d="M-0.5776574403047562 -0.902300950884819 C0.04140971998373666 26.321405834952987, 2.9117906620105107 136.61110840936502, 3.644862338900566 164.14683606922625 M-0.5737350133806467 0.4571691028028728 C-0.5503579723586639 27.493128774936, 1.0816778592516978 136.2360064387073, 1.6238238974660635 163.66022958435119" style="stroke: rgb(0, 0, 0); stroke-width: 1; fill: none;"></path></g></g><g><g transform="translate(733.81640625 433.2734375)"><path d="M-0.6749052565544843 -0.7516391415148973 C-101.81503487440447 0.09675991348922264, -506.34625812781354 3.999823771044612, -607.7198750656098 4.581801698729396 M0.3568632516358048 -1.4739802880678328 C-101.35074634948435 -0.8018536673579367, -507.3190675680743 4.165332944234833, -608.6493603223469 4.9189737422671165" style="stroke: rgb(0, 0, 0); stroke-width: 1; fill: none;"></path></g></g><g><g transform="translate(731.8984375 483.40625)"><path d="M0.4062475360929967 -0.42518525496125215 C-99.84508027260503 0.12742670799295108, -500.73895912195246 2.0905523580809433, -601.3408797346056 2.3779246054589747 M-1.6197724747471511 0.542871480267495 C-102.16119595784073 1.0671846950861315, -502.383421643159 1.9801911948931714, -602.6742135077528 2.003361011426896" style="stroke: rgb(0, 0, 0); stroke-width: 1; fill: none;"></path></g></g><g transform="translate(141.9765625 358.640625)"><text x="0" y="18" font-family="Virgil" font-size="20px" fill="#000000">#</text></g><g transform="translate(206.81640625 356.55859375)"><text x="0" y="18" font-family="Virgil" font-size="20px" fill="#000000">Delta</text></g><g transform="translate(147.26171875 408.109375)"><text x="0" y="18" font-family="Virgil" font-size="20px" fill="#000000">2</text></g><g transform="translate(156.4921875 453.44140625)"><text x="0" y="18" font-family="Virgil" font-size="20px" fill="#000000">1</text></g><g transform="translate(206.796875 454.64453125)"><text x="0" y="18" font-family="Virgil" font-size="20px" fill="#000000">20 s</text></g><g transform="translate(211.125 404.88671875)"><text x="0" y="18" font-family="Virgil" font-size="20px" fill="#000000">15 s</text></g><g><g transform="translate(300.421875 344.59765625)"><path d="M1.170012640580535 0.8801734630018474 C1.5933072841415803 28.561954464887574, 2.824625952666005 138.44956947403648, 3.430576312169433 165.50541473068296 M-1.6331805824954064 1.1401023642439396 C-1.5258019648709646 28.859395380339897, 1.5801798679710672 138.7126151647388, 2.238568169204518 165.780345671298" style="stroke: rgb(0, 0, 0); stroke-width: 1; fill: none;"></path></g></g><g transform="translate(322.8515625 354.06640625)"><text x="0" y="18" font-family="Virgil" font-size="20px" fill="#000000">Timestamp</text></g><g transform="translate(332.76953125 452.29296875)"><text x="0" y="18" font-family="Virgil" font-size="20px" fill="#000000">18:30:10</text></g><g transform="translate(329.16796875 403.76953125)"><text x="0" y="18" font-family="Virgil" font-size="20px" fill="#000000">18:30:25</text></g></svg>